<svg width="70" height="70" viewBox="0 0 70 70" fill="none" xmlns="http://www.w3.org/2000/svg">
<circle cx="35" cy="35" r="35" fill="#E4E4E4"/>
<path d="M49.1422 40.8578C46.9638 38.6795 44.371 37.067 41.5421 36.0908C44.572 34.004 46.5625 30.5116 46.5625 26.5625C46.5625 20.187 41.3755 15 35 15C28.6245 15 23.4375 20.187 23.4375 26.5625C23.4375 30.5116 25.428 34.004 28.458 36.0908C25.6291 37.067 23.0363 38.6795 20.8579 40.8578C17.0804 44.6354 15 49.6578 15 55H18.125C18.125 45.6951 25.6951 38.125 35 38.125C44.3049 38.125 51.875 45.6951 51.875 55H55C55 49.6578 52.9196 44.6354 49.1422 40.8578ZM35 35C30.3476 35 26.5625 31.215 26.5625 26.5625C26.5625 21.91 30.3476 18.125 35 18.125C39.6524 18.125 43.4375 21.91 43.4375 26.5625C43.4375 31.215 39.6524 35 35 35Z" fill="white"/>
</svg>
