<svg width="32" height="32" viewBox="0 0 32 32" fill="none" xmlns="http://www.w3.org/2000/svg">
<path d="M3.33331 14C1.496 14 0 15.496 0 17.3333V28C0 29.8373 1.496 31.3333 3.33331 31.3333H7.33331C8.084 31.3333 8.77462 31.08 9.33331 30.6586V14H3.33331Z" fill="#418ED2"/>
<path d="M32 19C32 18.1987 31.6827 17.452 31.132 16.9013C31.7547 16.22 32.072 15.3066 31.9853 14.356C31.8293 12.6613 30.3026 11.3333 28.508 11.3333H20.272C20.68 10.0946 21.3333 7.824 21.3333 6C21.3333 3.108 18.876 0.666687 17.3333 0.666687C15.948 0.666687 14.9586 1.44669 14.916 1.47869C14.7587 1.60537 14.6667 1.79737 14.6667 2V6.52131L10.8267 14.84L10.6667 14.9213V29.212C11.752 29.724 13.1253 30 14 30H26.2387C27.6907 30 28.9614 29.0213 29.26 27.6707C29.4133 26.976 29.324 26.276 29.0187 25.668C30.004 25.172 30.6667 24.1573 30.6667 23C30.6667 22.528 30.5587 22.076 30.3534 21.6667C31.3387 21.1707 32 20.156 32 19Z" fill="#418ED2"/>
</svg>
