<svg width="28" height="28" viewBox="0 0 28 28" fill="none" xmlns="http://www.w3.org/2000/svg">
<g clip-path="url(#clip0)">
<path d="M27.7033 9.79687L19.7032 1.79694C19.5053 1.59899 19.271 1.49998 19.0002 1.49998C18.7293 1.49998 18.4949 1.59899 18.2971 1.79694C18.0991 1.99499 18 2.22939 18 2.50018V6.50015H14.5C7.07264 6.50015 2.5156 8.59916 0.827862 12.7971C0.275936 14.1927 0 15.9273 0 18.0002C0 19.7293 0.66149 22.0782 1.98436 25.047C2.01556 25.1201 2.07006 25.2448 2.14832 25.4219C2.22653 25.5988 2.29675 25.755 2.35924 25.8906C2.42196 26.0258 2.48971 26.1404 2.56256 26.2341C2.68744 26.4112 2.83335 26.5 3.00005 26.5C3.15629 26.5 3.27872 26.4479 3.36732 26.3438C3.45571 26.2397 3.49998 26.1093 3.49998 25.9535C3.49998 25.8595 3.48696 25.7217 3.46085 25.5393C3.4348 25.3568 3.42172 25.2348 3.42172 25.1721C3.36957 24.4641 3.34352 23.8229 3.34352 23.2504C3.34352 22.1984 3.4348 21.2557 3.61694 20.4224C3.79934 19.589 4.05191 18.8678 4.37491 18.2583C4.69786 17.6487 5.11439 17.123 5.62494 16.6803C6.13527 16.2375 6.68468 15.8757 7.27322 15.5944C7.86187 15.313 8.55455 15.0916 9.35144 14.9302C10.1483 14.7688 10.9503 14.6568 11.7577 14.5942C12.5651 14.5317 13.4791 14.5006 14.5 14.5006H18V18.5007C18 18.7714 18.0989 19.0059 18.2967 19.2037C18.4948 19.4015 18.7291 19.5006 18.9998 19.5006C19.2706 19.5006 19.505 19.4015 19.7032 19.2037L27.7032 11.2035C27.9011 11.0056 28 10.7713 28 10.5004C28 10.2297 27.9011 9.9952 27.7033 9.79687Z" fill="#D5D5D5"/>
</g>
<defs>
<clipPath id="clip0">
<rect width="28" height="28" fill="white"/>
</clipPath>
</defs>
</svg>
